<svg xmlns="http://www.w3.org/2000/svg" width="500" height="500" viewBox="0 0 500 500">
  <g id="github_icon" data-name="github icon" transform="translate(-1198 -3145)">
    <circle id="facebookIcon" cx="250" cy="250" r="250" transform="translate(1198 3145)" fill="#9e8500"/>
    <g id="_25231" data-name="25231" transform="translate(1272.516 3214.146)">
      <path id="パス_11" data-name="パス 11" d="M326.525,94.708a176.487,176.487,0,0,0-63.686-65.285A167.963,167.963,0,0,0,175,5.365a167.981,167.981,0,0,0-87.84,24.059A176.467,176.467,0,0,0,23.47,94.709Q0,135.935,0,184.747,0,243.38,33.382,290.205t86.244,64.816q6.153,1.171,9.113-1.633a9.242,9.242,0,0,0,2.962-7q0-.7-.115-12.613t-.115-20.785l-5.241.929a65.251,65.251,0,0,1-12.647.818A94.08,94.08,0,0,1,97.748,313.1a34.974,34.974,0,0,1-15.267-7,29.624,29.624,0,0,1-10.024-14.363l-2.279-5.375A58.643,58.643,0,0,0,63,274.448q-4.9-6.542-9.912-8.875l-1.6-1.171a16.893,16.893,0,0,1-2.962-2.805,12.858,12.858,0,0,1-2.05-3.27q-.685-1.638,1.139-2.691c1.217-.7,3.417-1.044,6.608-1.044l4.556.7q4.558.936,11.279,5.6a37.344,37.344,0,0,1,11.05,12.142q5.243,9.579,12.647,14.6a26.383,26.383,0,0,0,14.924,5.02,63.259,63.259,0,0,0,12.988-1.164,44.555,44.555,0,0,0,10.253-3.506q2.051-15.656,11.164-24.06a152.569,152.569,0,0,1-23.355-4.205,91.741,91.741,0,0,1-21.417-9.114,61.727,61.727,0,0,1-18.344-15.647q-7.291-9.344-11.961-24.526T63.343,175.4q0-28.268,18-48.118-8.433-21.252,1.594-47.646,6.608-2.1,19.6,3.152t19.026,8.994q6.041,3.732,9.685,6.306a160.684,160.684,0,0,1,87.5,0l8.659-5.6A121.352,121.352,0,0,1,248.369,82.2q12.077-4.669,18.463-2.567,10.25,26.395,1.819,47.646,18,19.855,18,48.118,0,19.853-4.671,35.151t-12.071,24.526a64.07,64.07,0,0,1-18.461,15.533,91.915,91.915,0,0,1-21.421,9.11,152.409,152.409,0,0,1-23.355,4.21q11.844,10.507,11.845,33.165v49.28a9.42,9.42,0,0,0,2.851,7q2.848,2.8,9,1.632,52.869-17.982,86.248-64.815T350,184.74Q349.988,135.935,326.525,94.708Z" fill="#fff"/>
    </g>
  </g>
</svg>
