<svg xmlns="http://www.w3.org/2000/svg" width="500" height="500" viewBox="0 0 500 500">
  <g id="linkedIn_Icon" data-name="linkedIn Icon" transform="translate(-1178 -3130)">
    <circle id="facebookIcon" cx="250" cy="250" r="250" transform="translate(1178 3130)" fill="#9e8500"/>
    <g id="_34227" data-name="34227" transform="translate(1278 3220.442)">
      <path id="LinkedIn" d="M280,181.226V289.558H219.987V188.481c0-25.391-8.68-42.72-30.4-42.72-16.583,0-26.451,11.678-30.792,22.975-1.583,4.039-1.991,9.66-1.991,15.313V289.558H96.768s.809-171.191,0-188.928H156.8v26.78c-.122.2-.28.416-.395.61h.395v-.61c7.975-12.855,22.218-31.218,54.1-31.218C250.391,96.191,280,123.195,280,181.226ZM33.97,9.558C13.433,9.558,0,23.655,0,42.194c0,18.135,13.044,32.66,33.174,32.66h.4c20.935,0,33.955-14.522,33.955-32.66C67.135,23.655,54.51,9.558,33.97,9.558Zm-30.4,280h60.01V100.63H3.565Z" transform="translate(19)" fill="#fff"/>
    </g>
  </g>
</svg>
